<svg width="18" height="19" viewBox="0 0 18 19" fill="none" xmlns="http://www.w3.org/2000/svg">
<path d="M18 8.8328V17.5C18 17.8978 17.842 18.2793 17.5607 18.5606C17.2794 18.842 16.8978 19 16.5 19H12.75C12.3522 19 11.9706 18.842 11.6893 18.5606C11.408 18.2793 11.25 17.8978 11.25 17.5V13.75C11.25 13.5511 11.171 13.3603 11.0303 13.2197C10.8897 13.079 10.6989 13 10.5 13H7.5C7.30109 13 7.11032 13.079 6.96967 13.2197C6.82902 13.3603 6.75 13.5511 6.75 13.75V17.5C6.75 17.8978 6.59196 18.2793 6.31066 18.5606C6.02936 18.842 5.64782 19 5.25 19H1.5C1.10218 19 0.720644 18.842 0.43934 18.5606C0.158035 18.2793 1.73323e-08 17.8978 1.73323e-08 17.5V8.8328C-3.15402e-05 8.6252 0.0430305 8.41986 0.126461 8.22976C0.209891 8.03966 0.331873 7.86895 0.484687 7.72843L7.98469 0.65218L7.995 0.641867C8.27113 0.390742 8.63097 0.251587 9.00422 0.251587C9.37747 0.251587 9.7373 0.390742 10.0134 0.641867C10.0166 0.645536 10.0201 0.648981 10.0238 0.65218L17.5238 7.72843C17.675 7.86969 17.7954 8.04073 17.8774 8.2308C17.9594 8.42086 18.0011 8.62583 18 8.8328Z" fill="#9D4CDC"/>
</svg>
