<svg width="25" height="24" viewBox="0 0 25 24" fill="none" xmlns="http://www.w3.org/2000/svg">
<path fill-rule="evenodd" clip-rule="evenodd" d="M12.0061 21.75C13.7178 21.7525 15.3996 21.3023 16.8811 20.445V17.25C16.8811 16.3549 16.5255 15.4965 15.8926 14.8635C15.2597 14.2306 14.4012 13.875 13.5061 13.875H10.5061C9.611 13.875 8.75255 14.2306 8.11962 14.8635C7.48668 15.4965 7.1311 16.3549 7.1311 17.25V20.445C8.61259 21.3023 10.2945 21.7525 12.0061 21.75ZM19.1311 17.25V18.6555C20.4282 17.267 21.2912 15.5297 21.6142 13.6572C21.9372 11.7848 21.706 9.85877 20.9491 8.11594C20.1922 6.3731 18.9425 4.88942 17.3537 3.84727C15.7649 2.80511 13.9062 2.24991 12.0061 2.24991C10.106 2.24991 8.2473 2.80511 6.6585 3.84727C5.06969 4.88942 3.82002 6.3731 3.0631 8.11594C2.30619 9.85877 2.07501 11.7848 2.39799 13.6572C2.72098 15.5297 3.58405 17.267 4.8811 18.6555V17.25C4.88109 16.0903 5.23932 14.9589 5.90681 14.0106C6.57429 13.0623 7.51843 12.3433 8.6101 11.952C8.04368 11.3005 7.67662 10.4998 7.5527 9.64545C7.42878 8.79109 7.55324 7.91911 7.91122 7.13353C8.2692 6.34794 8.84559 5.68191 9.57166 5.21488C10.2977 4.74784 11.1428 4.49951 12.0061 4.49951C12.8694 4.49951 13.7145 4.74784 14.4406 5.21488C15.1666 5.68191 15.743 6.34794 16.101 7.13353C16.459 7.91911 16.5834 8.79109 16.4595 9.64545C16.3356 10.4998 15.9685 11.3005 15.4021 11.952C16.4938 12.3433 17.4379 13.0623 18.1054 14.0106C18.7729 14.9589 19.1311 16.0903 19.1311 17.25ZM12.0061 24C15.1887 24 18.2409 22.7357 20.4914 20.4853C22.7418 18.2348 24.0061 15.1826 24.0061 12C24.0061 8.8174 22.7418 5.76516 20.4914 3.51472C18.2409 1.26428 15.1887 0 12.0061 0C8.82351 0 5.77126 1.26428 3.52082 3.51472C1.27039 5.76516 0.00610352 8.8174 0.00610352 12C0.00610352 15.1826 1.27039 18.2348 3.52082 20.4853C5.77126 22.7357 8.82351 24 12.0061 24ZM14.2561 9C14.2561 9.59674 14.0191 10.169 13.5971 10.591C13.1751 11.0129 12.6028 11.25 12.0061 11.25C11.4094 11.25 10.8371 11.0129 10.4151 10.591C9.99316 10.169 9.7561 9.59674 9.7561 9C9.7561 8.40326 9.99316 7.83097 10.4151 7.40901C10.8371 6.98705 11.4094 6.75 12.0061 6.75C12.6028 6.75 13.1751 6.98705 13.5971 7.40901C14.0191 7.83097 14.2561 8.40326 14.2561 9Z" fill="#9D4CDC"/>
</svg>
