<svg width="20" height="20" viewBox="0 0 20 20" fill="none" xmlns="http://www.w3.org/2000/svg">
<path d="M6.01843 20C5.46843 20 4.99743 19.804 4.60543 19.412C4.21343 19.02 4.01777 18.5493 4.01843 18C4.01843 17.45 4.21443 16.979 4.60643 16.587C4.99843 16.195 5.4691 15.9993 6.01843 16C6.56843 16 7.03943 16.196 7.43143 16.588C7.82343 16.98 8.0191 17.4507 8.01843 18C8.01843 18.55 7.82243 19.021 7.43043 19.413C7.03843 19.805 6.56777 20.0007 6.01843 20ZM16.0184 20C15.4684 20 14.9974 19.804 14.6054 19.412C14.2134 19.02 14.0178 18.5493 14.0184 18C14.0184 17.45 14.2144 16.979 14.6064 16.587C14.9984 16.195 15.4691 15.9993 16.0184 16C16.5684 16 17.0394 16.196 17.4314 16.588C17.8234 16.98 18.0191 17.4507 18.0184 18C18.0184 18.55 17.8224 19.021 17.4304 19.413C17.0384 19.805 16.5678 20.0007 16.0184 20ZM5.16843 4L7.56843 9H14.5684L17.3184 4H5.16843ZM4.21843 2H18.9684C19.3518 2 19.6434 2.171 19.8434 2.513C20.0434 2.855 20.0518 3.20067 19.8684 3.55L16.3184 9.95C16.1351 10.2833 15.8891 10.5417 15.5804 10.725C15.2718 10.9083 14.9344 11 14.5684 11H7.11843L6.01843 13H18.0184V15H6.01843C5.26843 15 4.70177 14.6707 4.31843 14.012C3.9351 13.3533 3.91843 12.6993 4.26843 12.05L5.61843 9.6L2.01843 2H0.0184326V0H3.26843L4.21843 2Z" fill="#9D4CDC"/>
</svg>
