<svg width="21" height="21" viewBox="0 0 21 21" fill="none" xmlns="http://www.w3.org/2000/svg">
<path d="M16.0433 14.617L20.3263 18.899L18.9113 20.314L14.6293 16.031C13.0361 17.3082 11.0543 18.0029 9.01233 18C4.04433 18 0.0123291 13.968 0.0123291 9C0.0123291 4.032 4.04433 0 9.01233 0C13.9803 0 18.0123 4.032 18.0123 9C18.0152 11.042 17.3206 13.0237 16.0433 14.617ZM14.0373 13.875C15.3064 12.5699 16.0152 10.8204 16.0123 9C16.0123 5.133 12.8793 2 9.01233 2C5.14533 2 2.01233 5.133 2.01233 9C2.01233 12.867 5.14533 16 9.01233 16C10.8328 16.0029 12.5822 15.2941 13.8873 14.025L14.0373 13.875Z" fill="#9D4CDC"/>
</svg>
