<svg width="11" height="18" viewBox="0 0 11 18" fill="none" xmlns="http://www.w3.org/2000/svg">
<path d="M8.36466 17.3417L0.641746 9.64166C0.550079 9.54999 0.484996 9.45069 0.446496 9.34374C0.407996 9.2368 0.389052 9.12221 0.389663 8.99999C0.389663 8.87777 0.408913 8.76319 0.447413 8.65624C0.485913 8.5493 0.550691 8.44999 0.641746 8.35833L8.36466 0.635408C8.57855 0.42152 8.84591 0.314575 9.16675 0.314575C9.48758 0.314575 9.76258 0.429159 9.99175 0.658325C10.2209 0.887492 10.3355 1.15485 10.3355 1.46041C10.3355 1.76596 10.2209 2.03333 9.99175 2.26249L3.25425 8.99999L9.99175 15.7375C10.2056 15.9514 10.3126 16.2151 10.3126 16.5286C10.3126 16.8421 10.198 17.1131 9.96883 17.3417C9.73966 17.5708 9.4723 17.6854 9.16675 17.6854C8.86119 17.6854 8.59383 17.5708 8.36466 17.3417Z" fill="#F8F8F8"/>
</svg>
