<svg width="24" height="24" viewBox="0 0 24 24" fill="none" xmlns="http://www.w3.org/2000/svg">
<g clip-path="url(#clip0_115_560)">
<path fill-rule="evenodd" clip-rule="evenodd" d="M18 3C18.5046 2.99984 18.9906 3.19041 19.3605 3.5335C19.7305 3.87659 19.9572 4.34684 19.995 4.85L20 5V20C20.0002 20.5046 19.8096 20.9906 19.4665 21.3605C19.1234 21.7305 18.6532 21.9572 18.15 21.995L18 22H6C5.49542 22.0002 5.00943 21.8096 4.63945 21.4665C4.26947 21.1234 4.04284 20.6532 4.005 20.15L4 20V5C3.99984 4.49542 4.19041 4.00943 4.5335 3.63945C4.87659 3.26947 5.34684 3.04284 5.85 3.005L6 3H18ZM18 5H6V20H18V5ZM9.5 16C9.89782 16 10.2794 16.158 10.5607 16.4393C10.842 16.7206 11 17.1022 11 17.5C11 17.8978 10.842 18.2794 10.5607 18.5607C10.2794 18.842 9.89782 19 9.5 19C9.10217 19 8.72064 18.842 8.43934 18.5607C8.15803 18.2794 8 17.8978 8 17.5C8 17.1022 8.15803 16.7206 8.43934 16.4393C8.72064 16.158 9.10217 16 9.5 16ZM14.5 16C14.8978 16 15.2794 16.158 15.5607 16.4393C15.842 16.7206 16 17.1022 16 17.5C16 17.8978 15.842 18.2794 15.5607 18.5607C15.2794 18.842 14.8978 19 14.5 19C14.1022 19 13.7206 18.842 13.4393 18.5607C13.158 18.2794 13 17.8978 13 17.5C13 17.1022 13.158 16.7206 13.4393 16.4393C13.7206 16.158 14.1022 16 14.5 16ZM9.5 12C9.89782 12 10.2794 12.158 10.5607 12.4393C10.842 12.7206 11 13.1022 11 13.5C11 13.8978 10.842 14.2794 10.5607 14.5607C10.2794 14.842 9.89782 15 9.5 15C9.10217 15 8.72064 14.842 8.43934 14.5607C8.15803 14.2794 8 13.8978 8 13.5C8 13.1022 8.15803 12.7206 8.43934 12.4393C8.72064 12.158 9.10217 12 9.5 12ZM14.5 12C14.8978 12 15.2794 12.158 15.5607 12.4393C15.842 12.7206 16 13.1022 16 13.5C16 13.8978 15.842 14.2794 15.5607 14.5607C15.2794 14.842 14.8978 15 14.5 15C14.1022 15 13.7206 14.842 13.4393 14.5607C13.158 14.2794 13 13.8978 13 13.5C13 13.1022 13.158 12.7206 13.4393 12.4393C13.7206 12.158 14.1022 12 14.5 12ZM15.5 6C15.8729 6.00002 16.2324 6.13892 16.5084 6.38962C16.7844 6.64032 16.9572 6.98484 16.993 7.356L17 7.5V9.5C17 9.87288 16.8611 10.2324 16.6104 10.5084C16.3597 10.7844 16.0152 10.9572 15.644 10.993L15.5 11H8.5C8.12712 11 7.76761 10.8611 7.49158 10.6104C7.21555 10.3597 7.0428 10.0152 7.007 9.644L7 9.5V7.5C7.00002 7.12712 7.13892 6.76761 7.38962 6.49158C7.64032 6.21555 7.98484 6.0428 8.356 6.007L8.5 6H15.5ZM15 8H9V9H15V8Z" fill="#9747FF"/>
</g>
<defs>
<clipPath id="clip0_115_560">
<rect width="24" height="24" fill="white"/>
</clipPath>
</defs>
</svg>
