<svg width="34" height="31" viewBox="0 0 34 31" fill="none" xmlns="http://www.w3.org/2000/svg">
<path d="M20.5333 3.66671L23.5833 7.00004H30.3333V27H3.66659V7.00004H10.4166L13.4666 3.66671H20.5333ZM21.9999 0.333374H11.9999L8.94992 3.66671H3.66659C1.83325 3.66671 0.333252 5.16671 0.333252 7.00004V27C0.333252 28.8334 1.83325 30.3334 3.66659 30.3334H30.3333C32.1666 30.3334 33.6666 28.8334 33.6666 27V7.00004C33.6666 5.16671 32.1666 3.66671 30.3333 3.66671H25.0499L21.9999 0.333374ZM16.9999 12C19.7499 12 21.9999 14.25 21.9999 17C21.9999 19.75 19.7499 22 16.9999 22C14.2499 22 11.9999 19.75 11.9999 17C11.9999 14.25 14.2499 12 16.9999 12ZM16.9999 8.66671C12.3999 8.66671 8.66658 12.4 8.66658 17C8.66658 21.6 12.3999 25.3334 16.9999 25.3334C21.5999 25.3334 25.3333 21.6 25.3333 17C25.3333 12.4 21.5999 8.66671 16.9999 8.66671Z" fill="#F8F8F8"/>
</svg>
