<svg width="31" height="31" viewBox="0 0 31 31" fill="none" xmlns="http://www.w3.org/2000/svg">
<path fill-rule="evenodd" clip-rule="evenodd" d="M11.5363 10.8273H17.262V13.6793C18.0868 12.039 20.202 10.5652 23.3794 10.5652C29.4705 10.5652 30.9166 13.8304 30.9166 19.8213V30.9167H24.7499V21.1857C24.7499 17.774 23.9251 15.85 21.8254 15.85C18.9132 15.85 17.703 17.9235 17.703 21.1842V30.9167H11.5363V10.8273ZM0.962002 30.6546H7.12867V10.5652H0.962002V30.6546ZM8.01204 4.01462C8.01227 4.53151 7.90976 5.04328 7.71047 5.5202C7.51119 5.99711 7.21909 6.42967 6.85117 6.79271C6.10562 7.53367 5.09646 7.94842 4.04534 7.94588C2.99606 7.94517 1.98923 7.53147 1.24259 6.79425C0.875995 6.42997 0.584889 5.99694 0.385948 5.51996C0.187008 5.04298 0.0841448 4.53143 0.083252 4.01462C0.083252 2.97092 0.499502 1.97192 1.24413 1.235C1.99012 0.496785 2.99737 0.0829127 4.04688 0.0833744C5.09829 0.0833744 6.10654 0.498083 6.85117 1.235C7.59425 1.97192 8.01204 2.97092 8.01204 4.01462Z" fill="#656B6D"/>
</svg>
