<svg width="24" height="24" viewBox="0 0 24 24" fill="none" xmlns="http://www.w3.org/2000/svg">
<g clip-path="url(#clip0_90_172)">
<path d="M15.2875 0C13.7616 0 12.5304 -1.66339e-08 11.5626 0.130605C10.558 0.264558 9.71187 0.554791 9.03989 1.22567C8.45497 1.81172 8.15805 2.53172 8.00289 3.37786C7.8522 4.20056 7.82318 5.20633 7.81648 6.41414C7.8153 6.63618 7.90236 6.8496 8.05853 7.00744C8.21469 7.16529 8.42717 7.25463 8.6492 7.25581C8.87124 7.257 9.08465 7.16993 9.24249 7.01376C9.40033 6.85759 9.48967 6.64511 9.49085 6.42307C9.49755 5.20298 9.52881 4.33786 9.64936 3.68037C9.76657 3.04856 9.95298 2.6813 10.2242 2.41005C10.5334 2.10084 10.9677 1.89991 11.787 1.7894C12.6298 1.67665 13.7471 1.67442 15.3489 1.67442H16.4652C18.0681 1.67442 19.1855 1.67665 20.0283 1.7894C20.8476 1.89991 21.2807 2.10195 21.591 2.41005C21.8991 2.71926 22.1 3.15237 22.2105 3.97284C22.3244 4.81451 22.3255 5.93302 22.3255 7.53488V16.4651C22.3255 18.067 22.3244 19.1844 22.2105 20.0283C22.1 20.8476 21.8991 21.2807 21.5899 21.59C21.2807 21.8992 20.8476 22.1001 20.0283 22.2106C19.1855 22.3233 18.0681 22.3256 16.4652 22.3256H15.3489C13.7471 22.3256 12.6297 22.3233 11.7859 22.2106C10.9677 22.1001 10.5334 21.898 10.2242 21.59C9.95298 21.3176 9.76657 20.9514 9.64936 20.3196C9.52881 19.6621 9.49755 18.797 9.49085 17.5769C9.49027 17.467 9.46803 17.3582 9.42542 17.2569C9.3828 17.1555 9.32065 17.0636 9.24249 16.9862C9.16434 16.9089 9.07172 16.8477 8.96992 16.8062C8.86812 16.7647 8.75914 16.7436 8.6492 16.7442C8.53926 16.7448 8.43051 16.767 8.32916 16.8096C8.22782 16.8522 8.13585 16.9144 8.05853 16.9926C7.9812 17.0707 7.92003 17.1633 7.8785 17.2651C7.83697 17.3669 7.81589 17.4759 7.81648 17.5859C7.82318 18.7937 7.8522 19.7994 8.00289 20.6221C8.15917 21.4683 8.45497 22.1883 9.04101 22.7743C9.71187 23.4463 10.5591 23.7343 11.5637 23.8705C12.5304 24 13.7616 24 15.2875 24H16.5266C18.0536 24 19.2837 24 20.2515 23.8705C21.2561 23.7343 22.1022 23.4463 22.7742 22.7743C23.4462 22.1023 23.7342 21.2562 23.8704 20.2515C23.9999 19.2837 23.9999 18.0525 23.9999 16.5265V7.47349C23.9999 5.94754 23.9999 4.71628 23.8704 3.74847C23.7353 2.74381 23.4462 1.89767 22.7742 1.22567C22.1022 0.553675 21.2561 0.265674 20.2515 0.130605C19.2837 -1.66339e-08 18.0525 0 16.5266 0H15.2875Z" fill="#9747FF"/>
<path d="M15.3491 11.163C15.5711 11.163 15.784 11.2512 15.941 11.4082C16.098 11.5652 16.1863 11.7781 16.1863 12.0002C16.1863 12.2222 16.098 12.4352 15.941 12.5922C15.784 12.7492 15.5711 12.8374 15.3491 12.8374H3.10045L5.28942 14.7127C5.45816 14.8572 5.56261 15.0628 5.57977 15.2843C5.59694 15.5058 5.52542 15.725 5.38095 15.8938C5.23648 16.0625 5.03089 16.167 4.80941 16.1841C4.58793 16.2013 4.3687 16.1298 4.19996 15.9853L0.29308 12.6365C0.201174 12.5579 0.127386 12.4603 0.0767919 12.3504C0.0261981 12.2406 0 12.1211 0 12.0002C0 11.8792 0.0261981 11.7597 0.0767919 11.6499C0.127386 11.5401 0.201174 11.4425 0.29308 11.3639L4.19996 8.01506C4.28351 7.94352 4.38034 7.88914 4.48491 7.85503C4.58948 7.82091 4.69974 7.80773 4.80941 7.81623C4.91907 7.82472 5.02599 7.85474 5.12406 7.90456C5.22212 7.95438 5.30941 8.02303 5.38095 8.10659C5.45248 8.19015 5.50686 8.28698 5.54098 8.39155C5.57509 8.49612 5.58827 8.60639 5.57977 8.71606C5.57127 8.82573 5.54126 8.93265 5.49144 9.03072C5.44162 9.12878 5.37297 9.21608 5.28942 9.28761L3.10157 11.163H15.3491Z" fill="#9747FF"/>
</g>
<defs>
<clipPath id="clip0_90_172">
<rect width="24" height="24" fill="white"/>
</clipPath>
</defs>
</svg>
