<svg width="24" height="24" viewBox="0 0 24 24" fill="none" xmlns="http://www.w3.org/2000/svg">
<path d="M15.2875 0C13.7616 0 12.5303 -1.66339e-08 11.5626 0.130605C10.5579 0.264558 9.71181 0.554791 9.03983 1.22567C8.45491 1.81172 8.15799 2.53172 8.00283 3.37786C7.85214 4.20056 7.82312 5.20633 7.81642 6.41414C7.81523 6.63618 7.9023 6.8496 8.05847 7.00744C8.21463 7.16529 8.42711 7.25463 8.64914 7.25581C8.87118 7.257 9.08459 7.16993 9.24243 7.01376C9.40027 6.85759 9.48961 6.64511 9.49079 6.42307C9.49749 5.20298 9.52875 4.33786 9.6493 3.68037C9.76651 3.04856 9.95292 2.6813 10.2242 2.41005C10.5334 2.10084 10.9676 1.89991 11.7869 1.7894C12.6297 1.67665 13.7471 1.67442 15.3489 1.67442H16.4651C18.0681 1.67442 19.1854 1.67665 20.0282 1.7894C20.8475 1.89991 21.2806 2.10195 21.5909 2.41005C21.899 2.71926 22.1 3.15237 22.2105 3.97284C22.3243 4.81451 22.3254 5.93302 22.3254 7.53488V16.4651C22.3254 18.067 22.3243 19.1844 22.2105 20.0283C22.1 20.8476 21.899 21.2807 21.5898 21.59C21.2806 21.8992 20.8475 22.1001 20.0282 22.2106C19.1854 22.3233 18.0681 22.3256 16.4651 22.3256H15.3489C13.7471 22.3256 12.6297 22.3233 11.7858 22.2106C10.9676 22.1001 10.5334 21.898 10.2242 21.59C9.95292 21.3176 9.76651 20.9514 9.6493 20.3196C9.52875 19.6621 9.49749 18.797 9.49079 17.5769C9.49021 17.467 9.46797 17.3582 9.42536 17.2569C9.38274 17.1555 9.32058 17.0636 9.24243 16.9862C9.16428 16.9089 9.07166 16.8477 8.96986 16.8062C8.86806 16.7647 8.75908 16.7436 8.64914 16.7442C8.5392 16.7448 8.43045 16.767 8.3291 16.8096C8.22776 16.8522 8.13579 16.9144 8.05847 16.9926C7.98114 17.0707 7.91997 17.1633 7.87844 17.2651C7.83691 17.3669 7.81583 17.4759 7.81642 17.5859C7.82312 18.7937 7.85214 19.7994 8.00283 20.6221C8.15911 21.4683 8.45491 22.1883 9.04094 22.7743C9.71181 23.4463 10.559 23.7343 11.5637 23.8705C12.5303 24 13.7616 24 15.2875 24H16.5265C18.0535 24 19.2837 24 20.2514 23.8705C21.2561 23.7343 22.1022 23.4463 22.7742 22.7743C23.4462 22.1023 23.7341 21.2562 23.8703 20.2515C23.9998 19.2837 23.9998 18.0525 23.9998 16.5265V7.47349C23.9998 5.94754 23.9998 4.71628 23.8703 3.74847C23.7353 2.74381 23.4462 1.89767 22.7742 1.22567C22.1022 0.553675 21.2561 0.265674 20.2514 0.130605C19.2837 -1.66339e-08 18.0524 0 16.5265 0H15.2875Z" fill="#D62F30"/>
<path d="M15.3491 11.163C15.5711 11.163 15.784 11.2512 15.941 11.4082C16.098 11.5652 16.1863 11.7781 16.1863 12.0002C16.1863 12.2222 16.098 12.4352 15.941 12.5922C15.784 12.7492 15.5711 12.8374 15.3491 12.8374H3.10045L5.28942 14.7127C5.45816 14.8572 5.56261 15.0628 5.57977 15.2843C5.59694 15.5058 5.52542 15.725 5.38095 15.8938C5.23648 16.0625 5.03089 16.167 4.80941 16.1841C4.58793 16.2013 4.3687 16.1298 4.19996 15.9853L0.29308 12.6365C0.201174 12.5579 0.127386 12.4603 0.0767919 12.3504C0.0261981 12.2406 0 12.1211 0 12.0002C0 11.8792 0.0261981 11.7597 0.0767919 11.6499C0.127386 11.5401 0.201174 11.4425 0.29308 11.3639L4.19996 8.01506C4.28351 7.94352 4.38034 7.88914 4.48491 7.85503C4.58948 7.82091 4.69974 7.80773 4.80941 7.81623C4.91907 7.82472 5.02599 7.85474 5.12406 7.90456C5.22212 7.95438 5.30941 8.02303 5.38095 8.10659C5.45248 8.19015 5.50686 8.28698 5.54098 8.39155C5.57509 8.49612 5.58827 8.60639 5.57977 8.71606C5.57127 8.82573 5.54126 8.93265 5.49144 9.03072C5.44162 9.12878 5.37297 9.21608 5.28942 9.28761L3.10157 11.163H15.3491Z" fill="#D91E1E"/>
</svg>
