<svg width="33" height="27" viewBox="0 0 33 27" fill="none" xmlns="http://www.w3.org/2000/svg">
<path d="M32.2434 3.71968C31.067 4.24014 29.8194 4.58205 28.5419 4.73409C29.8879 3.92801 30.8949 2.66015 31.3755 1.16668C30.1113 1.91901 28.7254 2.44626 27.2824 2.73147C26.3121 1.69328 25.0259 1.00474 23.6239 0.77291C22.2219 0.541077 20.7826 0.778933 19.5297 1.4495C18.2769 2.12007 17.2806 3.18577 16.6959 4.48094C16.1112 5.77611 15.9708 7.22817 16.2964 8.61138C13.7326 8.4831 11.2243 7.817 8.93459 6.65634C6.64487 5.49567 4.62486 3.8664 3.00574 1.8743C2.43269 2.85858 2.13155 3.97748 2.13316 5.11643C2.13316 7.35184 3.27245 9.32672 5.00066 10.483C3.97701 10.4507 2.9759 10.1742 2.08074 9.67668V9.7553C2.08069 11.2444 2.59571 12.6876 3.53843 13.8402C4.48116 14.9928 5.79356 15.7839 7.25303 16.0792C6.30281 16.337 5.30636 16.375 4.33928 16.1902C4.75079 17.4719 5.5529 18.5929 6.63328 19.396C7.71365 20.199 9.01817 20.6441 10.3641 20.6688C9.0265 21.7193 7.4949 22.4959 5.85691 22.9541C4.21892 23.4122 2.50668 23.543 0.818115 23.3389C3.76535 25.2342 7.19615 26.2404 10.7002 26.2373C22.5618 26.2373 29.046 16.4122 29.046 7.89143C29.046 7.61393 29.0399 7.33334 29.0275 7.05738C30.2892 6.14527 31.3782 5.014 32.2434 3.71968Z" fill="#656B6D"/>
</svg>
